<svg width="144" height="64" viewBox="0 0 144 64" fill="none" xmlns="http://www.w3.org/2000/svg">
<path d="M31.9393 6.53993L34.4319 0.264239L31.5841 0L30.386 2.03585L30.3619 2.02383L29.1036 4.1978L28.1885 5.74721C27.8875 5.68715 27.5925 5.78925 27.4359 5.99944C27.4058 6.03547 27.3757 6.07751 27.3577 6.11955L26.6954 7.47678C26.6232 7.62091 26.6232 7.78305 26.6834 7.9392C26.7376 8.07732 26.8399 8.19142 26.9724 8.28151C26.575 9.42854 25.1963 13.4642 24.6725 15.6081L22.9085 18.9051L13.1491 18.8451V18.8631C10.6566 21.7697 3.4801 30.7178 2.33619 33.9368L1.46923 36.2789C1.45718 36.3089 1.45116 36.3449 1.44514 36.375C1.4331 36.5731 1.18024 41.2514 5.96659 45.8516C5.97261 45.8576 5.97863 45.8636 5.99067 45.8696C8.62768 48.0255 13.4682 51.905 13.5164 51.9471C13.5886 52.0011 13.6729 52.0312 13.7632 52.0312C13.8475 52.0312 13.9318 52.0071 13.998 51.9531C15.1419 51.0763 16.8819 48.8603 15.2563 46.7524C14.9372 46.338 14.4977 45.8996 13.986 45.4011C11.4754 42.9209 8.03767 39.5278 13.9499 33.6905C13.9619 33.6785 13.9679 33.6665 13.98 33.6545C15.0757 32.2672 18.7001 29.3906 21.903 27.3788L22.1198 27.2407C23.7754 26.2017 27.6467 23.7635 28.905 22.1781C28.923 22.1541 28.9351 22.1301 28.9471 22.106L30.0609 19.7399C30.1031 19.6498 30.1031 19.5477 30.0669 19.4576L28.5678 15.8303C29.0013 13.7465 29.3505 12.2211 30.0429 10.4795L30.7051 9.05621C31.0061 9.11026 31.2951 9.01417 31.4456 8.79797C31.4758 8.76194 31.5059 8.7199 31.5239 8.67787L32.1862 7.32063C32.2584 7.1765 32.2584 7.01436 32.1982 6.85822C32.1561 6.73811 32.0597 6.624 31.9393 6.53993ZM28.2728 21.7757C27.0627 23.2651 23.3119 25.6252 21.6983 26.6401L21.4816 26.7783C18.2365 28.8261 14.5399 31.7628 13.39 33.2101C6.99009 39.5458 11.0299 43.5335 13.4441 45.9116C13.9378 46.398 14.3593 46.8124 14.6483 47.1908C15.9788 48.9203 14.3834 50.6319 13.7572 51.2024C12.7277 50.3797 8.79024 47.2148 6.50242 45.3411C2.22782 41.2214 2.19771 36.9635 2.20976 36.4771L3.06468 34.183C4.06409 31.3844 10.3375 23.3372 13.5344 19.5837L23.3841 19.6438L25.3829 15.9084L25.413 15.8243C25.4191 15.8123 25.4191 15.8003 25.4251 15.7823L25.4431 15.7883C26.0271 13.3801 27.8213 8.23346 27.8393 8.17941L27.9537 7.86112L27.4721 7.66895L28.038 6.5099C28.044 6.5099 28.05 6.5099 28.0561 6.51591L28.5257 6.70207L28.5498 6.66604H28.5558L32.0176 0.780708L33.3662 0.900816L30.958 6.96031L31.4517 7.15849L30.8857 8.31754C30.8797 8.31754 30.8737 8.31754 30.8677 8.31153L30.3439 8.10134L30.3258 8.14338L30.3138 8.13737L29.3324 10.2513C28.5979 12.101 28.2427 13.6804 27.7851 15.8664V15.8724C27.7851 15.8784 27.7851 15.8784 27.7851 15.8844H27.7912L29.3204 19.5898L28.2728 21.7757Z" fill="#0BA749"/>
<path d="M39.7056 44.7164C39.6996 44.5663 39.6033 44.4342 39.4528 44.3861C39.3083 44.3381 39.1397 44.3741 39.0373 44.4882L33.0529 51.0101C33.0288 50.9621 33.0108 50.896 32.9987 50.824C32.9144 50.3735 33.0649 49.2926 34.9554 47.1366C38.4172 43.3111 39.1818 42.3743 39.2601 42.02H39.2661C39.2962 41.4675 39.513 36.6451 37.0746 36.4529C36.9362 36.4409 36.8037 36.513 36.7254 36.6211C36.4304 37.0355 30.8915 42.5124 27.1106 46.2178C26.924 46.0917 26.6952 45.8875 26.653 45.6352C26.5808 45.2329 26.9721 44.7825 27.3213 44.4702C32.1197 39.828 36.7495 34.5732 36.7977 34.5252C36.8338 34.4831 36.8639 34.4291 36.876 34.375C36.888 34.333 37.8212 30.4415 33.7994 29.4266C33.6851 29.3965 33.5646 29.4206 33.4683 29.4926C31.8187 30.7177 23.426 37.7021 22.2038 38.723C21.9088 38.6629 21.4934 38.5188 21.4091 38.2846C21.367 38.1645 21.361 37.8042 22.1918 37.0715L27.9475 32.6695C27.9836 32.6395 31.8488 29.6007 33.0348 28.7299C33.8235 28.1474 33.3419 26.616 32.4809 25.463C31.3732 23.9856 30.0246 23.4872 28.9529 24.1658C28.8385 24.2379 16.4241 32.8256 13.4319 36.8613C12.0712 38.9452 12.0471 40.2063 13.3416 42.7226C13.3536 42.7466 13.3717 42.7767 13.3897 42.7947L16.3759 46.1817C16.4 46.2118 18.7601 49.2745 16.7191 51.3224C15.6595 52.5115 14.5035 53.5504 14.0219 53.9648C12.8117 53.07 7.52568 49.1785 5.72553 47.6831C2.43228 44.9506 1.25225 40.5787 1.24021 40.5366C1.19806 40.3805 1.04755 40.2664 0.878972 40.2604C0.710396 40.2544 0.553861 40.3625 0.505697 40.5246C0.43345 40.7528 -1.05363 45.8514 1.43286 51.8209C0.95724 52.1812 0.782643 52.8118 1.04153 53.3643C1.26429 53.8387 1.75798 54.1209 2.27574 54.1209C2.46238 54.1209 2.64902 54.0849 2.82964 54.0068C3.50996 53.7126 3.81099 52.9439 3.50394 52.3013C3.2571 51.7848 2.7032 51.4966 2.14329 51.5506C0.493656 47.575 0.680293 43.9477 0.96326 42.068C1.58338 43.6535 2.89586 46.2898 5.22582 48.2296C7.27282 49.9291 13.7449 54.6734 13.8112 54.7155C13.9556 54.8176 14.1543 54.8116 14.2928 54.7035C14.359 54.6494 15.8883 53.3703 17.285 51.7968C19.7535 49.3226 17.0141 45.7674 16.972 45.7193L14.0038 42.3503C12.8539 40.0922 12.8719 39.0833 14.064 37.2516C16.8094 33.5463 28.6218 25.2348 29.3683 24.7603C30.4339 24.0817 31.626 25.5711 31.8548 25.8773C32.6375 26.9223 32.8181 27.9552 32.5652 28.1414C31.3671 29.0182 27.4959 32.0629 27.4598 32.093L21.6981 36.501C21.6921 36.507 21.6861 36.513 21.674 36.519C20.8071 37.2877 20.4819 37.9363 20.6806 38.5068C20.9516 39.2995 22.1316 39.4496 22.264 39.4677C22.3664 39.4797 22.4748 39.4496 22.559 39.3776C22.6554 39.2995 31.7103 31.7507 33.7754 30.1712C36.6231 31 36.2438 33.6184 36.1475 34.1168C35.5876 34.7534 31.2527 39.6238 26.7855 43.9417C26.0931 44.5603 25.7981 45.1728 25.9005 45.7554C26.051 46.5901 26.9842 46.9805 27.0203 46.9985C27.1648 47.0585 27.3334 47.0285 27.4417 46.9204C28.9288 45.4611 35.9669 38.5548 37.189 37.2096C38.4353 37.5819 38.5677 40.6868 38.5075 41.8999C38.3811 42.086 37.7249 42.9628 34.3774 46.6622C32.7458 48.5179 32.0354 49.9832 32.2642 51.0041C32.4027 51.6287 32.8422 51.8509 32.8903 51.8749C33.0469 51.947 33.2335 51.9109 33.3419 51.7908L38.947 45.6773C38.7965 58.4629 28.6458 62.0962 22.5049 63.1231L22.3905 63.1411C16.984 63.6576 12.6913 62.6126 9.01276 59.8742C9.18736 59.5378 9.21144 59.1295 9.03684 58.7631C8.7298 58.1146 7.92906 57.8263 7.24873 58.1206C6.56841 58.4148 6.26738 59.1835 6.57443 59.8261C6.72495 60.1384 6.98985 60.3786 7.327 60.4987C7.48354 60.5528 7.64007 60.5828 7.80263 60.5828C7.99529 60.5828 8.18192 60.5468 8.35652 60.4687C8.39866 60.4507 8.44081 60.4267 8.48295 60.4026C11.6979 62.8048 15.4488 63.9879 19.8678 63.9879C20.7107 63.9879 21.5777 63.9458 22.4748 63.8618C22.4868 63.8618 22.4928 63.8618 22.5049 63.8558L22.6313 63.8317C24.0521 63.5915 28.3689 62.8709 32.3364 60.1744C37.4058 56.7573 39.8802 51.5506 39.7056 44.7164ZM2.26972 51.971C2.6129 51.971 2.93801 52.1572 3.08852 52.4754C3.18485 52.6856 3.19689 52.9199 3.1126 53.136C3.02832 53.3522 2.85974 53.5204 2.643 53.6165C2.19146 53.8147 1.65563 53.6225 1.45093 53.1901C1.24623 52.7577 1.44491 52.2472 1.89645 52.0491C2.02288 51.995 2.14931 51.971 2.26972 51.971ZM6.99587 59.658C6.79117 59.2256 6.98985 58.7151 7.44139 58.5169C7.5618 58.4629 7.68824 58.4389 7.81467 58.4389C7.92304 58.4389 8.03141 58.4569 8.13376 58.4929C8.35652 58.571 8.53714 58.7331 8.63347 58.9433C8.83817 59.3757 8.63949 59.8862 8.18794 60.0843C7.73038 60.2825 7.20057 60.0903 6.99587 59.658Z" fill="#0BA749"/>
<path d="M22.9022 22.5145C22.5951 21.8659 21.7944 21.5777 21.1141 21.8719C20.7829 22.0161 20.5361 22.2683 20.4096 22.5926C20.3976 22.6226 20.3856 22.6527 20.3795 22.6827H14.0459L9.54854 29.1385C9.23547 29.0364 8.88026 29.0424 8.55515 29.1806C8.22401 29.3247 7.97717 29.5769 7.85074 29.9012C7.72431 30.2255 7.73635 30.5738 7.88686 30.8861C8.10962 31.3605 8.60331 31.6428 9.12108 31.6428C9.30772 31.6428 9.49435 31.6068 9.67497 31.5287C10.3553 31.2344 10.6563 30.4657 10.3493 29.8232C10.3011 29.7271 10.2409 29.637 10.1747 29.5529L14.4553 23.4093H20.3795C20.3976 23.4694 20.4157 23.5234 20.4458 23.5775C20.6685 24.0519 21.1622 24.3342 21.68 24.3342C21.8666 24.3342 22.0533 24.2981 22.2339 24.2201C22.565 24.0759 22.8119 23.8237 22.9383 23.4994C23.0647 23.1751 23.0527 22.8268 22.9022 22.5145ZM9.95794 30.6579C9.87365 30.8741 9.70507 31.0423 9.48833 31.1383C9.03679 31.3365 8.50096 31.1444 8.29626 30.712C8.09156 30.2796 8.29024 29.7691 8.74178 29.5709C8.86219 29.5169 8.98863 29.4929 9.10904 29.4929C9.45221 29.4929 9.77732 29.679 9.92783 29.9973C10.0362 30.2135 10.0422 30.4417 9.95794 30.6579ZM22.5168 23.3493C22.4326 23.5655 22.264 23.7336 22.0472 23.8297C21.5957 24.0279 21.0599 23.8357 20.8552 23.4033C20.6505 22.9709 20.8492 22.4605 21.3007 22.2623C21.4211 22.2083 21.5475 22.1842 21.6679 22.1842C22.0111 22.1842 22.3362 22.3704 22.4867 22.6887C22.5891 22.8989 22.6011 23.1331 22.5168 23.3493Z" fill="#0BA749"/>
<path d="M48.8511 42.5907L51.2954 25.5833H51.5724L58.502 39.5399L65.3655 25.5833H65.6364L68.0928 42.5907H66.4191L64.7333 30.4236L58.7067 42.5907H58.2733L52.1744 30.3336L50.5007 42.5907H48.8511Z" fill="#0BA749"/>
<path d="M78.4119 25.5833L86.365 42.5907H84.5227L81.8436 36.9936H74.4985L71.8434 42.5907H69.9409L77.9964 25.5833H78.4119ZM78.1951 29.1985L75.2751 35.3541H81.1031L78.1951 29.1985Z" fill="#0BA749"/>
<path d="M86.1543 27.2468V25.5833H95.4982V27.2468H91.6932V42.5907H89.9533V27.2468H86.1543Z" fill="#0BA749"/>
<path d="M99.2731 25.5833H109.045V27.2468H100.977V32.5796H108.972V34.2431H100.971V40.9272H108.972V42.5907H99.2671V25.5833H99.2731Z" fill="#0BA749"/>
<path d="M128.509 28.736L127.167 29.763C126.426 28.8021 125.535 28.0694 124.493 27.571C123.452 27.0725 122.314 26.8263 121.068 26.8263C119.707 26.8263 118.449 27.1506 117.287 27.8052C116.125 28.4598 115.228 29.3306 114.59 30.4296C113.951 31.5286 113.632 32.7657 113.632 34.1349C113.632 36.2068 114.343 37.9364 115.77 39.3296C117.197 40.7229 118.997 41.4135 121.164 41.4135C123.554 41.4135 125.547 40.4827 127.161 38.615L128.503 39.6299C127.654 40.7109 126.595 41.5456 125.318 42.1342C124.048 42.7227 122.627 43.017 121.056 43.017C118.069 43.017 115.721 42.0261 113.994 40.0443C112.549 38.3688 111.826 36.3509 111.826 33.9848C111.826 31.4925 112.699 29.4026 114.451 27.6971C116.203 25.9975 118.395 25.1448 121.032 25.1448C122.621 25.1448 124.06 25.4571 125.342 26.0876C126.643 26.7242 127.69 27.607 128.509 28.736Z" fill="#0BA749"/>
<path d="M131.911 25.5833H133.614V32.7177H142.296V25.5833H144V42.5907H142.296V34.3812H133.614V42.5907H131.911V25.5833Z" fill="#0BA749"/>
<path d="M50.3442 54.103C50.3744 54.6675 50.5068 55.1239 50.7416 55.4782C51.1871 56.1388 51.9758 56.4631 53.1077 56.4631C53.6134 56.4631 54.077 56.3911 54.4924 56.2469C55.2992 55.9647 55.7026 55.4662 55.7026 54.7456C55.7026 54.2051 55.534 53.8207 55.1968 53.5865C54.8537 53.3583 54.3178 53.1661 53.5833 52.998L52.2347 52.6917C51.3557 52.4935 50.7296 52.2773 50.3623 52.0371C49.7302 51.6227 49.4111 51.0042 49.4111 50.1754C49.4111 49.2806 49.7181 48.5479 50.3382 47.9774C50.9583 47.4069 51.8313 47.1187 52.9692 47.1187C54.0108 47.1187 54.9018 47.3709 55.6303 47.8753C56.3588 48.3798 56.7261 49.1845 56.7261 50.2895H55.4557C55.3895 49.755 55.245 49.3467 55.0222 49.0644C54.6128 48.5479 53.9144 48.2837 52.9271 48.2837C52.1324 48.2837 51.5604 48.4519 51.2112 48.7822C50.862 49.1185 50.6874 49.5028 50.6874 49.9472C50.6874 50.4337 50.8921 50.788 51.2955 51.0162C51.5604 51.1603 52.1685 51.3405 53.1077 51.5567L54.5045 51.875C55.1788 52.0311 55.6965 52.2413 56.0638 52.5055C56.696 52.9679 57.015 53.6466 57.015 54.5294C57.015 55.6284 56.6117 56.4151 55.8109 56.8895C55.0102 57.3639 54.077 57.5981 53.0114 57.5981C51.7711 57.5981 50.8018 57.2799 50.1034 56.6493C49.405 56.0247 49.0558 55.1719 49.0739 54.097H50.3442V54.103Z" fill="#0BA749"/>
<path d="M65.9798 47.3708V48.5539H62.6204V57.3099H61.2477V48.5599H57.8882V47.3769H65.9798V47.3708Z" fill="#0BA749"/>
<path d="M68.6771 47.3708V53.5144C68.6771 54.2351 68.8155 54.8356 69.0865 55.3161C69.4898 56.0367 70.1641 56.397 71.1214 56.397C72.2653 56.397 73.042 56.0067 73.4574 55.226C73.6801 54.7996 73.7885 54.2291 73.7885 53.5144V47.3708H75.1612V52.9499C75.1612 54.175 74.9986 55.1119 74.6675 55.7725C74.0594 56.9736 72.9155 57.5741 71.2358 57.5741C69.5561 57.5741 68.4121 56.9736 67.8101 55.7725C67.479 55.1119 67.3164 54.175 67.3164 52.9499V47.3708H68.6771Z" fill="#0BA749"/>
<path d="M77.3044 47.3708H81.3381C82.7108 47.3708 83.7704 47.8573 84.523 48.8242C85.1973 49.701 85.5345 50.818 85.5345 52.1872C85.5345 53.2442 85.3358 54.199 84.9384 55.0518C84.234 56.5592 83.0299 57.3099 81.3201 57.3099H77.2983V47.3708H77.3044ZM81.0672 56.1628C81.5248 56.1628 81.8981 56.1148 82.1931 56.0187C82.7169 55.8445 83.1503 55.5022 83.4815 55.0038C83.7464 54.6014 83.939 54.0909 84.0594 53.4604C84.1257 53.088 84.1618 52.7397 84.1618 52.4214C84.1618 51.1903 83.9149 50.2354 83.4273 49.5508C82.9336 48.8722 82.1449 48.5299 81.0552 48.5299H78.659V56.1628H81.0672Z" fill="#0BA749"/>
<path d="M87.5815 47.3708H88.9422V57.3099H87.5815V47.3708Z" fill="#0BA749"/>
<path d="M99.3395 48.7941C100.002 49.6769 100.327 50.7999 100.327 52.1692C100.327 53.6525 99.9476 54.8836 99.195 55.8685C98.31 57.0216 97.0457 57.5981 95.4021 57.5981C93.8668 57.5981 92.6627 57.0936 91.7897 56.0847C91.0071 55.1118 90.6157 53.8807 90.6157 52.3914C90.6157 51.0462 90.9529 49.8991 91.6212 48.9383C92.4821 47.7131 93.7524 47.1006 95.4322 47.1006C97.1902 47.1006 98.4906 47.6651 99.3395 48.7941ZM98.1475 55.1239C98.6773 54.2711 98.9422 53.2982 98.9422 52.1932C98.9422 51.0281 98.6351 50.0853 98.0271 49.3706C97.413 48.656 96.5761 48.3017 95.5165 48.3017C94.4869 48.3017 93.6441 48.656 92.9939 49.3586C92.3436 50.0673 92.0185 51.1062 92.0185 52.4815C92.0185 53.5805 92.2955 54.5113 92.8554 55.268C93.4153 56.0247 94.3184 56.403 95.5707 56.403C96.7567 56.397 97.6177 55.9706 98.1475 55.1239Z" fill="#0BA749"/>
<path d="M102.819 54.103C102.849 54.6675 102.982 55.1239 103.217 55.4782C103.662 56.1388 104.451 56.4631 105.583 56.4631C106.089 56.4631 106.552 56.3911 106.968 56.2469C107.774 55.9647 108.178 55.4662 108.178 54.7456C108.178 54.2051 108.009 53.8207 107.672 53.5865C107.329 53.3583 106.793 53.1661 106.058 52.998L104.71 52.6917C103.831 52.4935 103.205 52.2773 102.837 52.0371C102.205 51.6227 101.886 51.0042 101.886 50.1754C101.886 49.2806 102.193 48.5479 102.813 47.9774C103.433 47.4069 104.306 47.1187 105.444 47.1187C106.486 47.1187 107.377 47.3709 108.105 47.8753C108.834 48.3798 109.201 49.1845 109.201 50.2895H107.931C107.865 49.755 107.72 49.3467 107.497 49.0644C107.088 48.5479 106.39 48.2837 105.402 48.2837C104.607 48.2837 104.036 48.4519 103.686 48.7822C103.337 49.1185 103.163 49.5028 103.163 49.9472C103.163 50.4337 103.367 50.788 103.771 51.0162C104.036 51.1603 104.644 51.3405 105.583 51.5567L106.98 51.875C107.654 52.0311 108.172 52.2413 108.539 52.5055C109.171 52.9679 109.49 53.6466 109.49 54.5294C109.49 55.6284 109.087 56.4151 108.286 56.8895C107.485 57.3639 106.552 57.5981 105.486 57.5981C104.246 57.5981 103.277 57.2799 102.579 56.6493C101.88 56.0247 101.531 55.1719 101.549 54.097H102.819V54.103Z" fill="#0BA749"/>
</svg>
